<?xml version="1.0" encoding="UTF-8" standalone="no"?>
<!-- Created with Inkscape (http://www.inkscape.org/) -->

<svg
   xmlns:dc="http://purl.org/dc/elements/1.1/"
   xmlns:cc="http://creativecommons.org/ns#"
   xmlns:rdf="http://www.w3.org/1999/02/22-rdf-syntax-ns#"
   xmlns:svg="http://www.w3.org/2000/svg"
   xmlns="http://www.w3.org/2000/svg"
   xmlns:sodipodi="http://sodipodi.sourceforge.net/DTD/sodipodi-0.dtd"
   xmlns:inkscape="http://www.inkscape.org/namespaces/inkscape"
   width="120mm"
   height="105mm"
   viewBox="0 0 120 105"
   version="1.1"
   id="svg8"
   sodipodi:docname="people2.svg"
   inkscape:version="0.92.4 (5da689c313, 2019-01-14)">
  <defs
     id="defs2" />
  <sodipodi:namedview
     id="base"
     pagecolor="#ffffff"
     bordercolor="#666666"
     borderopacity="1.0"
     inkscape:pageopacity="0.0"
     inkscape:pageshadow="2"
     inkscape:zoom="1.4"
     inkscape:cx="201.50543"
     inkscape:cy="169.42807"
     inkscape:document-units="mm"
     inkscape:current-layer="g5422"
     showgrid="false"
     inkscape:object-nodes="false"
     inkscape:snap-nodes="false"
     inkscape:snap-global="false"
     inkscape:window-width="1920"
     inkscape:window-height="1017"
     inkscape:window-x="-8"
     inkscape:window-y="-8"
     inkscape:window-maximized="1"
     showguides="false" />
  <metadata
     id="metadata5">
    <rdf:RDF>
      <cc:Work
         rdf:about="">
        <dc:format>image/svg+xml</dc:format>
        <dc:type
           rdf:resource="http://purl.org/dc/dcmitype/StillImage" />
        <dc:title></dc:title>
      </cc:Work>
    </rdf:RDF>
  </metadata>
  <g
     inkscape:label="Layer 1"
     inkscape:groupmode="layer"
     id="layer1"
     transform="translate(-63.877414,-127.28384)">
    <g
       id="g5422"
       transform="translate(-24.769157,-15.720859)"
       style="fill:#000000;fill-opacity:1">
      <path
         style="opacity:1;fill:#753c52;fill-opacity:1;fill-rule:nonzero;stroke:#ffffff;stroke-width:0;stroke-linejoin:round;stroke-miterlimit:4;stroke-dasharray:none;stroke-opacity:1;paint-order:markers stroke fill"
         d="m 132.34694,146.89434 a 23.325413,23.325413 0 0 0 -23.32522,23.32567 23.325413,23.325413 0 0 0 6.14897,15.73894 38.680701,40.54424 0 0 1 16.18047,-3.76619 38.680701,40.54424 0 0 1 5.86241,0.49902 24.968048,24.968048 0 0 1 16.52722,-21.69748 23.325413,23.325413 0 0 0 -21.39385,-14.09996 z"
         id="path5071-4"
         inkscape:connector-curvature="0" />
      <path
         style="opacity:1;fill:#753c52;fill-opacity:1;fill-rule:nonzero;stroke:#ffffff;stroke-width:0;stroke-linejoin:round;stroke-miterlimit:4;stroke-dasharray:none;stroke-opacity:1;paint-order:markers stroke fill"
         d="m 130.75481,187.18801 a 39.508397,41.411813 0 0 0 -39.508332,41.41203 39.508397,41.411813 0 0 0 0.0025,0.0752 h 33.019462 a 42.582562,44.634082 0 0 1 19.74749,-22.39239 27.486662,27.486662 0 0 1 -6.90917,-18.17163 27.486662,27.486662 0 0 1 0.0183,-0.36442 39.508397,41.411813 0 0 0 -6.36971,-0.55875 z"
         id="path5071-3-4-1"
         inkscape:connector-curvature="0" />
      <path
         inkscape:connector-curvature="0"
         id="path5071-3-4-1-6"
         d="m 165.56537,205.21856 a 36.454103,38.210372 0 0 0 -36.45419,38.21027 36.454103,38.210372 0 0 0 0.003,0.0694 h 72.90254 a 36.454103,38.210372 0 0 0 0.004,-0.0694 36.454103,38.210372 0 0 0 -36.45418,-38.21027 z"
         style="opacity:1;fill:#753c52;fill-opacity:1;fill-rule:nonzero;stroke:#ffffff;stroke-width:0;stroke-linejoin:round;stroke-miterlimit:4;stroke-dasharray:none;stroke-opacity:1;paint-order:markers stroke fill" />
      <path
         style="opacity:1;fill:#753c52;fill-opacity:1;fill-rule:nonzero;stroke:#ffffff;stroke-width:0;stroke-linejoin:round;stroke-miterlimit:4;stroke-dasharray:none;stroke-opacity:1;paint-order:markers stroke fill"
         d="m 166.71092,163.58851 a 23.069389,23.069389 0 0 0 -23.0692,23.0692 23.069389,23.069389 0 0 0 6.07748,15.56841 38.256134,40.099218 0 0 1 16.00686,-3.72663 38.256134,40.099218 0 0 1 17.36976,4.37254 23.069389,23.069389 0 0 0 6.68474,-16.21432 23.069389,23.069389 0 0 0 -23.06964,-23.0692 z"
         id="path5071-4-7-8"
         inkscape:connector-curvature="0" />
    </g>
    <rect
       style="opacity:1;fill:none;fill-opacity:1;fill-rule:nonzero;stroke:#ffffff;stroke-width:0;stroke-linejoin:round;stroke-miterlimit:4;stroke-dasharray:none;stroke-opacity:1;paint-order:markers stroke fill"
       id="rect5624"
       width="120"
       height="105"
       x="63.610146"
       y="127.01658"
       ry="0.26726884" />
    <rect
       style="opacity:1;fill:none;fill-opacity:1;fill-rule:nonzero;stroke:#ffffff;stroke-width:0;stroke-linejoin:round;stroke-miterlimit:4;stroke-dasharray:none;stroke-opacity:1;paint-order:markers stroke fill"
       id="rect5626"
       width="120"
       height="105"
       x="63.877415"
       y="127.28384"
       ry="0.26726884" />
  </g>
</svg>
